<svg width="37" height="37" viewBox="0 0 37 37" fill="none" xmlns="http://www.w3.org/2000/svg">
<path d="M35.5427 18.7031C35.5427 28.3676 27.6991 36.2031 18.0223 36.2031C8.34556 36.2031 0.501953 28.3676 0.501953 18.7031C0.501953 9.03867 8.34556 1.20312 18.0223 1.20312C27.6991 1.20312 35.5427 9.03867 35.5427 18.7031Z" fill="url(#paint0_linear_4201_16531)"/>
<path d="M35.5427 18.7031C35.5427 28.3676 27.6991 36.2031 18.0223 36.2031C8.34556 36.2031 0.501953 28.3676 0.501953 18.7031C0.501953 9.03867 8.34556 1.20312 18.0223 1.20312C27.6991 1.20312 35.5427 9.03867 35.5427 18.7031Z" fill="url(#paint1_linear_4201_16531)" fill-opacity="0.6"/>
<path d="M35.5427 18.7031C35.5427 28.3676 27.6991 36.2031 18.0223 36.2031C8.34556 36.2031 0.501953 28.3676 0.501953 18.7031C0.501953 9.03867 8.34556 1.20312 18.0223 1.20312C27.6991 1.20312 35.5427 9.03867 35.5427 18.7031Z" stroke="#4393DE"/>
<mask id="mask0_4201_16531" style="mask-type:alpha" maskUnits="userSpaceOnUse" x="0" y="1" width="36" height="35">
<path d="M34.6745 18.6797C34.6745 27.8523 27.2301 35.2891 18.0457 35.2891C8.86141 35.2891 1.41699 27.8523 1.41699 18.6797C1.41699 9.50712 8.86141 2.07031 18.0457 2.07031C27.2301 2.07031 34.6745 9.50711 34.6745 18.6797Z" fill="url(#paint2_linear_4201_16531)"/>
<path d="M34.6745 18.6797C34.6745 27.8523 27.2301 35.2891 18.0457 35.2891C8.86141 35.2891 1.41699 27.8523 1.41699 18.6797C1.41699 9.50712 8.86141 2.07031 18.0457 2.07031C27.2301 2.07031 34.6745 9.50711 34.6745 18.6797Z" fill="url(#paint3_linear_4201_16531)" fill-opacity="0.6"/>
<path d="M34.6745 18.6797C34.6745 27.8523 27.2301 35.2891 18.0457 35.2891C8.86141 35.2891 1.41699 27.8523 1.41699 18.6797C1.41699 9.50712 8.86141 2.07031 18.0457 2.07031C27.2301 2.07031 34.6745 9.50711 34.6745 18.6797Z" stroke="#64D8BF"/>
</mask>
<g mask="url(#mask0_4201_16531)">
<rect x="15.9741" y="24.0078" width="9.12604" height="6.43925" rx="1" fill="#64D8BF" stroke="white"/>
<rect x="15.9741" y="14.0312" width="9.12604" height="6.43925" rx="1" fill="#64D8BF" stroke="white"/>
<rect x="23.9741" y="2.84375" width="9.12604" height="6.43925" rx="1" fill="#64D8BF" stroke="white"/>
<mask id="path-6-inside-1_4201_16531" fill="white">
<path d="M31.3436 5.79859H26.33C26.161 5.79859 26.0244 5.66201 26.0244 5.49304C26.0244 5.32408 26.161 5.1875 26.33 5.1875H31.3436C31.5126 5.1875 31.6492 5.32408 31.6492 5.49304C31.6492 5.66201 31.5126 5.79859 31.3436 5.79859Z"/>
</mask>
<path d="M31.3436 5.79859H26.33C26.161 5.79859 26.0244 5.66201 26.0244 5.49304C26.0244 5.32408 26.161 5.1875 26.33 5.1875H31.3436C31.5126 5.1875 31.6492 5.32408 31.6492 5.49304C31.6492 5.66201 31.5126 5.79859 31.3436 5.79859Z" fill="white"/>
<path d="M31.3436 4.79859H26.33V6.79859H31.3436V4.79859ZM26.33 4.79859C26.7133 4.79859 27.0244 5.10973 27.0244 5.49304H25.0244C25.0244 6.21429 25.6087 6.79859 26.33 6.79859V4.79859ZM27.0244 5.49304C27.0244 5.87636 26.7133 6.1875 26.33 6.1875V4.1875C25.6087 4.1875 25.0244 4.7718 25.0244 5.49304H27.0244ZM26.33 6.1875H31.3436V4.1875H26.33V6.1875ZM31.3436 6.1875C30.9603 6.1875 30.6492 5.87636 30.6492 5.49304H32.6492C32.6492 4.77179 32.0649 4.1875 31.3436 4.1875V6.1875ZM30.6492 5.49304C30.6492 5.10972 30.9603 4.79859 31.3436 4.79859V6.79859C32.0649 6.79859 32.6492 6.2143 32.6492 5.49304H30.6492Z" fill="white" mask="url(#path-6-inside-1_4201_16531)"/>
<mask id="path-8-inside-2_4201_16531" fill="white">
<path d="M29.0267 7.50953H26.33C26.161 7.50953 26.0244 7.37295 26.0244 7.20398C26.0244 7.03502 26.161 6.89844 26.33 6.89844H29.0267C29.1957 6.89844 29.3322 7.03502 29.3322 7.20398C29.3322 7.37295 29.1957 7.50953 29.0267 7.50953Z"/>
</mask>
<path d="M29.0267 7.50953H26.33C26.161 7.50953 26.0244 7.37295 26.0244 7.20398C26.0244 7.03502 26.161 6.89844 26.33 6.89844H29.0267C29.1957 6.89844 29.3322 7.03502 29.3322 7.20398C29.3322 7.37295 29.1957 7.50953 29.0267 7.50953Z" fill="white"/>
<path d="M29.0267 6.50953H26.33V8.50953H29.0267V6.50953ZM26.33 6.50953C26.7133 6.50953 27.0244 6.82067 27.0244 7.20398H25.0244C25.0244 7.92523 25.6087 8.50953 26.33 8.50953V6.50953ZM27.0244 7.20398C27.0244 7.58729 26.7133 7.89844 26.33 7.89844V5.89844C25.6087 5.89844 25.0244 6.48274 25.0244 7.20398H27.0244ZM26.33 7.89844H29.0267V5.89844H26.33V7.89844ZM29.0267 7.89844C28.6434 7.89844 28.3322 7.5873 28.3322 7.20398H30.3322C30.3322 6.48273 29.7479 5.89844 29.0267 5.89844V7.89844ZM28.3322 7.20398C28.3322 6.82066 28.6434 6.50953 29.0267 6.50953V8.50953C29.7479 8.50953 30.3322 7.92523 30.3322 7.20398H28.3322Z" fill="white" mask="url(#path-8-inside-2_4201_16531)"/>
<mask id="path-10-inside-3_4201_16531" fill="white">
<path d="M31.3437 7.50953H30.85C30.681 7.50953 30.5444 7.37295 30.5444 7.20398C30.5444 7.03502 30.681 6.89844 30.85 6.89844H31.3437C31.5127 6.89844 31.6493 7.03502 31.6493 7.20398C31.6493 7.37295 31.5127 7.50953 31.3437 7.50953Z"/>
</mask>
<path d="M31.3437 7.50953H30.85C30.681 7.50953 30.5444 7.37295 30.5444 7.20398C30.5444 7.03502 30.681 6.89844 30.85 6.89844H31.3437C31.5127 6.89844 31.6493 7.03502 31.6493 7.20398C31.6493 7.37295 31.5127 7.50953 31.3437 7.50953Z" fill="white"/>
<path d="M31.3437 6.50953H30.85V8.50953H31.3437V6.50953ZM30.85 6.50953C31.2333 6.50953 31.5444 6.82066 31.5444 7.20398H29.5444C29.5444 7.92523 30.1287 8.50953 30.85 8.50953V6.50953ZM31.5444 7.20398C31.5444 7.5873 31.2333 7.89844 30.85 7.89844V5.89844C30.1287 5.89844 29.5444 6.48273 29.5444 7.20398H31.5444ZM30.85 7.89844H31.3437V5.89844H30.85V7.89844ZM31.3437 7.89844C30.9604 7.89844 30.6493 7.5873 30.6493 7.20398H32.6493C32.6493 6.48273 32.065 5.89844 31.3437 5.89844V7.89844ZM30.6493 7.20398C30.6493 6.82066 30.9604 6.50953 31.3437 6.50953V8.50953C32.065 8.50953 32.6493 7.92523 32.6493 7.20398H30.6493Z" fill="white" mask="url(#path-10-inside-3_4201_16531)"/>
<mask id="path-12-inside-4_4201_16531" fill="white">
<path d="M23.0345 16.6892H18.0209C17.8522 16.6892 17.7153 16.5526 17.7153 16.3837C17.7153 16.2147 17.8522 16.0781 18.0209 16.0781H23.0345C23.2035 16.0781 23.3401 16.2147 23.3401 16.3837C23.3401 16.5526 23.2035 16.6892 23.0345 16.6892Z"/>
</mask>
<path d="M23.0345 16.6892H18.0209C17.8522 16.6892 17.7153 16.5526 17.7153 16.3837C17.7153 16.2147 17.8522 16.0781 18.0209 16.0781H23.0345C23.2035 16.0781 23.3401 16.2147 23.3401 16.3837C23.3401 16.5526 23.2035 16.6892 23.0345 16.6892Z" fill="white"/>
<path d="M23.0345 15.6892H18.0209V17.6892H23.0345V15.6892ZM18.0209 15.6892C18.4038 15.6892 18.7153 15.9997 18.7153 16.3837H16.7153C16.7153 17.1056 17.3006 17.6892 18.0209 17.6892V15.6892ZM18.7153 16.3837C18.7153 16.7676 18.4038 17.0781 18.0209 17.0781V15.0781C17.3006 15.0781 16.7153 15.6618 16.7153 16.3837H18.7153ZM18.0209 17.0781H23.0345V15.0781H18.0209V17.0781ZM23.0345 17.0781C22.6512 17.0781 22.3401 16.767 22.3401 16.3837H24.3401C24.3401 15.6624 23.7558 15.0781 23.0345 15.0781V17.0781ZM22.3401 16.3837C22.3401 16.0004 22.6512 15.6892 23.0345 15.6892V17.6892C23.7558 17.6892 24.3401 17.1049 24.3401 16.3837H22.3401Z" fill="white" mask="url(#path-12-inside-4_4201_16531)"/>
<mask id="path-14-inside-5_4201_16531" fill="white">
<path d="M20.7176 18.3845H18.0209C17.8522 18.3845 17.7153 18.2479 17.7153 18.079C17.7153 17.91 17.8522 17.7734 18.0209 17.7734H20.7176C20.8866 17.7734 21.0232 17.91 21.0232 18.079C21.0232 18.2479 20.8866 18.3845 20.7176 18.3845Z"/>
</mask>
<path d="M20.7176 18.3845H18.0209C17.8522 18.3845 17.7153 18.2479 17.7153 18.079C17.7153 17.91 17.8522 17.7734 18.0209 17.7734H20.7176C20.8866 17.7734 21.0232 17.91 21.0232 18.079C21.0232 18.2479 20.8866 18.3845 20.7176 18.3845Z" fill="white"/>
<path d="M20.7176 17.3845H18.0209V19.3845H20.7176V17.3845ZM18.0209 17.3845C18.4038 17.3845 18.7153 17.695 18.7153 18.079H16.7153C16.7153 18.8009 17.3006 19.3845 18.0209 19.3845V17.3845ZM18.7153 18.079C18.7153 18.463 18.4039 18.7734 18.0209 18.7734V16.7734C17.3006 16.7734 16.7153 17.3571 16.7153 18.079H18.7153ZM18.0209 18.7734H20.7176V16.7734H18.0209V18.7734ZM20.7176 18.7734C20.3343 18.7734 20.0232 18.4623 20.0232 18.079H22.0232C22.0232 17.3577 21.4389 16.7734 20.7176 16.7734V18.7734ZM20.0232 18.079C20.0232 17.6957 20.3343 17.3845 20.7176 17.3845V19.3845C21.4389 19.3845 22.0232 18.8002 22.0232 18.079H20.0232Z" fill="white" mask="url(#path-14-inside-5_4201_16531)"/>
<mask id="path-16-inside-6_4201_16531" fill="white">
<path d="M23.0347 18.3845H22.5409C22.3719 18.3845 22.2354 18.2479 22.2354 18.079C22.2354 17.91 22.3719 17.7734 22.5409 17.7734H23.0347C23.2036 17.7734 23.3402 17.91 23.3402 18.079C23.3402 18.2479 23.2036 18.3845 23.0347 18.3845Z"/>
</mask>
<path d="M23.0347 18.3845H22.5409C22.3719 18.3845 22.2354 18.2479 22.2354 18.079C22.2354 17.91 22.3719 17.7734 22.5409 17.7734H23.0347C23.2036 17.7734 23.3402 17.91 23.3402 18.079C23.3402 18.2479 23.2036 18.3845 23.0347 18.3845Z" fill="white"/>
<path d="M23.0347 17.3845H22.5409V19.3845H23.0347V17.3845ZM22.5409 17.3845C22.9242 17.3845 23.2354 17.6957 23.2354 18.079H21.2354C21.2354 18.8002 21.8196 19.3845 22.5409 19.3845V17.3845ZM23.2354 18.079C23.2354 18.4623 22.9242 18.7734 22.5409 18.7734V16.7734C21.8196 16.7734 21.2354 17.3577 21.2354 18.079H23.2354ZM22.5409 18.7734H23.0347V16.7734H22.5409V18.7734ZM23.0347 18.7734C22.6513 18.7734 22.3402 18.4623 22.3402 18.079H24.3402C24.3402 17.3577 23.7559 16.7734 23.0347 16.7734V18.7734ZM22.3402 18.079C22.3402 17.6957 22.6513 17.3845 23.0347 17.3845V19.3845C23.7559 19.3845 24.3402 18.8002 24.3402 18.079H22.3402Z" fill="white" mask="url(#path-16-inside-6_4201_16531)"/>
<mask id="path-18-inside-7_4201_16531" fill="white">
<path d="M23.0345 26.658H18.0209C17.8522 26.658 17.7153 26.5214 17.7153 26.3524C17.7153 26.1835 17.8522 26.0469 18.0209 26.0469H23.0345C23.2035 26.0469 23.3401 26.1835 23.3401 26.3524C23.3401 26.5214 23.2035 26.658 23.0345 26.658Z"/>
</mask>
<path d="M23.0345 26.658H18.0209C17.8522 26.658 17.7153 26.5214 17.7153 26.3524C17.7153 26.1835 17.8522 26.0469 18.0209 26.0469H23.0345C23.2035 26.0469 23.3401 26.1835 23.3401 26.3524C23.3401 26.5214 23.2035 26.658 23.0345 26.658Z" fill="white"/>
<path d="M23.0345 25.658H18.0209V27.658H23.0345V25.658ZM18.0209 25.658C18.4038 25.658 18.7153 25.9684 18.7153 26.3524H16.7153C16.7153 27.0743 17.3006 27.658 18.0209 27.658V25.658ZM18.7153 26.3524C18.7153 26.7364 18.4038 27.0469 18.0209 27.0469V25.0469C17.3006 25.0469 16.7153 25.6305 16.7153 26.3524H18.7153ZM18.0209 27.0469H23.0345V25.0469H18.0209V27.0469ZM23.0345 27.0469C22.6512 27.0469 22.3401 26.7357 22.3401 26.3524H24.3401C24.3401 25.6312 23.7558 25.0469 23.0345 25.0469V27.0469ZM22.3401 26.3524C22.3401 25.9691 22.6512 25.658 23.0345 25.658V27.658C23.7558 27.658 24.3401 27.0737 24.3401 26.3524H22.3401Z" fill="white" mask="url(#path-18-inside-7_4201_16531)"/>
<mask id="path-20-inside-8_4201_16531" fill="white">
<path d="M20.7176 28.3689H18.0209C17.8522 28.3689 17.7153 28.2323 17.7153 28.0634C17.7153 27.8944 17.8522 27.7578 18.0209 27.7578H20.7176C20.8866 27.7578 21.0232 27.8944 21.0232 28.0634C21.0232 28.2323 20.8866 28.3689 20.7176 28.3689Z"/>
</mask>
<path d="M20.7176 28.3689H18.0209C17.8522 28.3689 17.7153 28.2323 17.7153 28.0634C17.7153 27.8944 17.8522 27.7578 18.0209 27.7578H20.7176C20.8866 27.7578 21.0232 27.8944 21.0232 28.0634C21.0232 28.2323 20.8866 28.3689 20.7176 28.3689Z" fill="white"/>
<path d="M20.7176 27.3689H18.0209V29.3689H20.7176V27.3689ZM18.0209 27.3689C18.4038 27.3689 18.7153 27.6794 18.7153 28.0634H16.7153C16.7153 28.7853 17.3006 29.3689 18.0209 29.3689V27.3689ZM18.7153 28.0634C18.7153 28.4473 18.4039 28.7578 18.0209 28.7578V26.7578C17.3006 26.7578 16.7153 27.3415 16.7153 28.0634H18.7153ZM18.0209 28.7578H20.7176V26.7578H18.0209V28.7578ZM20.7176 28.7578C20.3343 28.7578 20.0232 28.4467 20.0232 28.0634H22.0232C22.0232 27.3421 21.4389 26.7578 20.7176 26.7578V28.7578ZM20.0232 28.0634C20.0232 27.68 20.3343 27.3689 20.7176 27.3689V29.3689C21.4389 29.3689 22.0232 28.7846 22.0232 28.0634H20.0232Z" fill="white" mask="url(#path-20-inside-8_4201_16531)"/>
<mask id="path-22-inside-9_4201_16531" fill="white">
<path d="M23.0347 28.3689H22.5409C22.3719 28.3689 22.2354 28.2323 22.2354 28.0634C22.2354 27.8944 22.3719 27.7578 22.5409 27.7578H23.0347C23.2036 27.7578 23.3402 27.8944 23.3402 28.0634C23.3402 28.2323 23.2036 28.3689 23.0347 28.3689Z"/>
</mask>
<path d="M23.0347 28.3689H22.5409C22.3719 28.3689 22.2354 28.2323 22.2354 28.0634C22.2354 27.8944 22.3719 27.7578 22.5409 27.7578H23.0347C23.2036 27.7578 23.3402 27.8944 23.3402 28.0634C23.3402 28.2323 23.2036 28.3689 23.0347 28.3689Z" fill="white"/>
<path d="M23.0347 27.3689H22.5409V29.3689H23.0347V27.3689ZM22.5409 27.3689C22.9242 27.3689 23.2354 27.68 23.2354 28.0634H21.2354C21.2354 28.7846 21.8196 29.3689 22.5409 29.3689V27.3689ZM23.2354 28.0634C23.2354 28.4467 22.9242 28.7578 22.5409 28.7578V26.7578C21.8196 26.7578 21.2354 27.3421 21.2354 28.0634H23.2354ZM22.5409 28.7578H23.0347V26.7578H22.5409V28.7578ZM23.0347 28.7578C22.6513 28.7578 22.3402 28.4467 22.3402 28.0634H24.3402C24.3402 27.3421 23.7559 26.7578 23.0347 26.7578V28.7578ZM22.3402 28.0634C22.3402 27.68 22.6513 27.3689 23.0347 27.3689V29.3689C23.7559 29.3689 24.3402 28.7846 24.3402 28.0634H22.3402Z" fill="white" mask="url(#path-22-inside-9_4201_16531)"/>
<path d="M3.35419 17.6506C3.08649 17.4506 3.08649 17.0494 3.35419 16.8494L5.75301 15.0576C5.93047 14.925 6.17399 14.925 6.35145 15.0576L8.75027 16.8494C9.01797 17.0494 9.01797 17.4506 8.75027 17.6506L6.35145 19.4424C6.17399 19.575 5.93047 19.575 5.75301 19.4424L3.35419 17.6506Z" fill="#D2B64F" stroke="white"/>
<path d="M14.3457 17.2188H10.5488" stroke="white" stroke-width="0.8" stroke-linecap="round"/>
<path d="M29.0332 10.7578V16.7187C29.0332 16.9949 28.8093 17.2188 28.5332 17.2188H26.5488" stroke="white" stroke-width="0.8" stroke-linecap="round"/>
<path d="M20.4863 21.5078L20.4863 22.8203" stroke="white" stroke-width="0.8" stroke-linecap="round"/>
</g>
<defs>
<linearGradient id="paint0_linear_4201_16531" x1="33.4404" y1="8.82813" x2="-5.30364" y2="32.7128" gradientUnits="userSpaceOnUse">
<stop offset="0.552583" stop-color="#3C57A6"/>
<stop offset="0.9" stop-color="#7BC5E7"/>
</linearGradient>
<linearGradient id="paint1_linear_4201_16531" x1="30.6904" y1="2.45313" x2="1.59834" y2="36.7311" gradientUnits="userSpaceOnUse">
<stop stop-color="#64D8BF" stop-opacity="0"/>
<stop offset="1" stop-color="#64D8BF"/>
</linearGradient>
<linearGradient id="paint2_linear_4201_16531" x1="16.1761" y1="35.6083" x2="19.3655" y2="6.87102" gradientUnits="userSpaceOnUse">
<stop offset="0.2" stop-color="#3C57A6"/>
<stop offset="0.9" stop-color="#7BC5E7"/>
</linearGradient>
<linearGradient id="paint3_linear_4201_16531" x1="23.3985" y1="17.4321" x2="30.6419" y2="4.35551" gradientUnits="userSpaceOnUse">
<stop stop-color="#64D8BF" stop-opacity="0"/>
<stop offset="1" stop-color="#64D8BF"/>
</linearGradient>
</defs>
</svg>
