<svg width="46" height="47" viewBox="0 0 46 47" fill="none" xmlns="http://www.w3.org/2000/svg">
<circle cx="23" cy="23.6641" r="22" stroke="#64D8BF" stroke-width="2" stroke-linecap="round" stroke-dasharray="4 4"/>
<path d="M12.9525 25.1083L12.9525 24.6083L13.4525 24.6083L16.3969 24.6083L16.3969 23.8359L16.3969 23.0635L13.4525 23.0635L12.9525 23.0635L12.9525 22.5635L12.9525 20.9573L9.74817 23.8359L12.9525 26.7146L12.9525 25.1083ZM13.1193 26.8645C13.1192 26.8644 13.1192 26.8644 13.1191 26.8643L13.1193 26.8645Z" fill="#64D8BF" stroke="#64D8BF"/>
<path d="M33.0475 22.5635L33.0475 23.0635L32.5475 23.0635L29.6031 23.0635L29.6031 23.8359L29.6031 24.6083L32.5475 24.6083L33.0475 24.6083L33.0475 25.1083L33.0475 26.7146L36.2518 23.8359L33.0475 20.9573L33.0475 22.5635ZM32.8807 20.8074C32.8808 20.8074 32.8808 20.8075 32.8809 20.8076L32.8807 20.8074Z" fill="#64D8BF" stroke="#64D8BF"/>
<circle cx="3.5" cy="3.5" r="3.5" transform="matrix(1 0 0 -1 19.5 27.3047)" fill="#64D8BF"/>
</svg>
