<svg width="36" height="37" viewBox="0 0 36 37" fill="none" xmlns="http://www.w3.org/2000/svg">
<path d="M18.0018 36.6622C27.9429 36.6622 36.0017 28.6125 36.0017 18.6827C36.0017 8.75284 27.9429 0.703125 18.0018 0.703125C8.06078 0.703125 0.00195312 8.75284 0.00195312 18.6827C0.00195312 28.6125 8.06078 36.6622 18.0018 36.6622Z" fill="url(#paint0_linear_4201_16586)"/>
<path d="M18.0018 36.6622C27.9429 36.6622 36.0017 28.6125 36.0017 18.6827C36.0017 8.75284 27.9429 0.703125 18.0018 0.703125C8.06078 0.703125 0.00195312 8.75284 0.00195312 18.6827C0.00195312 28.6125 8.06078 36.6622 18.0018 36.6622Z" fill="url(#paint1_linear_4201_16586)" fill-opacity="0.6"/>
<path d="M35.5017 18.6827C35.5017 28.3358 27.6673 36.1622 18.0018 36.1622C8.33639 36.1622 0.501953 28.3358 0.501953 18.6827C0.501953 9.02951 8.33639 1.20312 18.0018 1.20312C27.6673 1.20312 35.5017 9.02951 35.5017 18.6827Z" fill="url(#paint2_linear_4201_16586)"/>
<path d="M35.5017 18.6827C35.5017 28.3358 27.6673 36.1622 18.0018 36.1622C8.33639 36.1622 0.501953 28.3358 0.501953 18.6827C0.501953 9.02951 8.33639 1.20312 18.0018 1.20312C27.6673 1.20312 35.5017 9.02951 35.5017 18.6827Z" fill="url(#paint3_linear_4201_16586)" fill-opacity="0.6"/>
<path d="M35.5017 18.6827C35.5017 28.3358 27.6673 36.1622 18.0018 36.1622C8.33639 36.1622 0.501953 28.3358 0.501953 18.6827C0.501953 9.02951 8.33639 1.20312 18.0018 1.20312C27.6673 1.20312 35.5017 9.02951 35.5017 18.6827Z" stroke="#4393DE"/>
<path d="M17.9588 24.9297H16.0236V26.9772C16.0236 26.9772 15.8946 27.681 14.9915 28.001C14.0883 28.2569 11.637 29.0887 11.637 29.0887C11.637 29.0887 9.57275 29.4726 9.57275 30.9443V34.663C11.0462 35.4271 12.3466 35.8253 12.3466 35.8253V34.4635C12.3466 34.4635 12.4111 34.4635 12.4756 34.5274C12.7766 34.7663 13.099 35.4147 13.2802 36.0918C14.9323 36.5637 16.8256 36.7082 18.0234 36.7082V25.0577L17.9588 24.9297Z" fill="#64D8BF"/>
<path d="M17.9588 24.9297H16.0236V26.9772C16.0236 26.9772 15.8946 27.681 14.9915 28.001C14.0883 28.2569 11.637 29.0887 11.637 29.0887C11.637 29.0887 9.57275 29.4726 9.57275 30.9443V34.663C11.0462 35.4271 12.3466 35.8253 12.3466 35.8253V34.4635C12.3466 34.4635 12.4111 34.4635 12.4756 34.5274C12.7766 34.7663 13.099 35.4147 13.2802 36.0918C14.9323 36.5637 16.8256 36.7082 18.0234 36.7082V25.0577L17.9588 24.9297Z" fill="#133274"/>
<path d="M24.2093 28.9644C24.2093 28.9644 22.682 28.5854 21.5853 28.2655C20.4887 27.9455 21.0876 28.126 20.9586 28.126C20.0555 27.87 19.9265 27.1022 19.9265 27.1022V25.0547H17.9912V36.7C20.3583 36.6855 22.2001 36.1895 22.7723 36.0321C22.9266 35.2134 23.2395 34.7621 23.5389 34.5245C23.5389 34.5245 23.6144 34.4878 23.668 34.4605V35.756C23.668 35.756 25.4595 35.162 26.4418 34.5745V30.9413C26.4418 29.4697 24.6069 29.0756 24.6069 29.0756L24.2093 28.9644Z" fill="#254892"/>
<path d="M15.0014 27.9349C14.7629 28.0461 14.3397 28.212 13.8882 28.34C14.9203 28.7879 16.0559 29.3432 17.9912 29.3432V24.9922H15.9914V27.0397C15.8999 27.4107 15.6953 27.6115 15.0014 27.9349Z" fill="#F1B786"/>
<path d="M19.9265 27.0397V24.9922H17.9912V29.3432C19.7329 29.3432 21.5392 28.8313 21.9907 28.3834C21.5392 28.2554 21.1521 28.1275 20.8941 28.0635C20.4009 27.9412 19.9265 27.3472 19.9265 27.0397Z" fill="#FED5B1"/>
<path fill-rule="evenodd" clip-rule="evenodd" d="M19.9262 25.0562H15.9951V26.4638C16.7692 26.9117 17.6684 27.1037 17.6684 27.1037C17.6684 27.1037 18.7452 27.356 19.9709 27.228L19.9262 27.0397V24.9922V25.0562Z" fill="#E39F6E"/>
<path d="M25.9901 13.0264C25.9901 18.3372 22.6357 22.6881 17.9911 22.6881C13.3465 22.6881 9.60498 20.4487 9.60498 14.4341C9.60498 8.41949 13.3465 5.15625 17.9911 5.15625C22.6357 5.15625 25.9901 9.69919 25.9901 13.0264Z" fill="#133274"/>
<path d="M26.2483 15.0724C26.2483 8.29003 22.5714 5.21875 17.9268 5.21875V22.7506C22.6359 22.7506 26.2483 22.2388 26.2483 15.0724Z" fill="#133274"/>
<path d="M13.3465 19.8754C13.3465 20.8992 12.5079 21.731 11.4757 21.731C10.4436 21.731 9.60498 20.8992 9.60498 19.8754V14.4367C9.60498 13.4129 10.4436 13.6689 11.4757 13.6689C12.5079 13.6689 13.3465 13.349 13.3465 14.4367V19.8754Z" fill="#133274"/>
<path d="M22.4419 19.1705C22.4419 20.1943 23.2805 21.474 24.3126 21.474C25.3448 21.474 26.1834 20.1943 26.1834 19.1705V16.0353C26.1834 15.0115 25.3448 14.1797 24.3126 14.1797C23.2805 14.1797 22.4419 15.0115 22.4419 16.0353V19.1705Z" fill="#133274"/>
<path d="M17.9268 9.83594V25.6937C19.991 25.6937 23.41 24.6817 24.1223 22.1105C24.5944 19.3547 23.41 10.3323 23.41 10.3323L17.9268 9.83594Z" fill="#FED5B1"/>
<path d="M17.9268 10.1406V25.6939C16.6366 25.6939 12.0064 24.49 11.5391 22.1108C10.9453 19.0876 12.4436 10.1406 12.4436 10.1406H17.9268Z" fill="#F1B786"/>
<path d="M11.9918 10.2697V11.1655C11.9272 11.1655 14.8946 13.9168 21.0229 15.1326C27.1512 16.3483 24.2484 15.1326 24.2484 15.1326L23.8613 10.2697C23.8613 10.2697 17.862 7.51834 12.0563 10.2697H11.9918Z" fill="#133274"/>
<path d="M35.0017 18.6827C35.0017 28.0591 27.3917 35.6622 18.0018 35.6622C8.612 35.6622 1.00195 28.0591 1.00195 18.6827C1.00195 9.30619 8.612 1.70312 18.0018 1.70312C27.3917 1.70312 35.0017 9.30619 35.0017 18.6827Z" stroke="#64D8BF" stroke-width="2"/>
<defs>
<linearGradient id="paint0_linear_4201_16586" x1="16.0371" y1="36.4723" x2="19.3887" y2="6.27342" gradientUnits="userSpaceOnUse">
<stop offset="0.2" stop-color="#3C57A6"/>
<stop offset="0.9" stop-color="#7BC5E7"/>
</linearGradient>
<linearGradient id="paint1_linear_4201_16586" x1="23.6268" y1="17.3717" x2="31.2386" y2="3.62998" gradientUnits="userSpaceOnUse">
<stop stop-color="white" stop-opacity="0"/>
<stop offset="1" stop-color="white"/>
</linearGradient>
<linearGradient id="paint2_linear_4201_16586" x1="16.0371" y1="36.4723" x2="19.3887" y2="6.27342" gradientUnits="userSpaceOnUse">
<stop offset="0.2" stop-color="#3C57A6"/>
<stop offset="0.9" stop-color="#7BC5E7"/>
</linearGradient>
<linearGradient id="paint3_linear_4201_16586" x1="23.6268" y1="17.3717" x2="31.2386" y2="3.62998" gradientUnits="userSpaceOnUse">
<stop stop-color="#64D8BF" stop-opacity="0"/>
<stop offset="1" stop-color="#64D8BF"/>
</linearGradient>
</defs>
</svg>
