<svg width="277" height="247" viewBox="0 0 277 247" fill="none" xmlns="http://www.w3.org/2000/svg">
<g clip-path="url(#clip0_3531_6759)">
<path d="M139.069 199.156C191.812 199.156 234.569 156.399 234.569 103.656C234.569 50.9131 191.812 8.15625 139.069 8.15625C86.3261 8.15625 43.5693 50.9131 43.5693 103.656C43.5693 156.399 86.3261 199.156 139.069 199.156Z" fill="url(#paint0_linear_3531_6759)"/>
<path d="M139.069 199.156C191.812 199.156 234.569 156.399 234.569 103.656C234.569 50.9131 191.812 8.15625 139.069 8.15625C86.3261 8.15625 43.5693 50.9131 43.5693 103.656C43.5693 156.399 86.3261 199.156 139.069 199.156Z" fill="url(#paint1_radial_3531_6759)"/>
<path d="M139.069 199.156C191.812 199.156 234.569 156.399 234.569 103.656C234.569 50.9131 191.812 8.15625 139.069 8.15625C86.3261 8.15625 43.5693 50.9131 43.5693 103.656C43.5693 156.399 86.3261 199.156 139.069 199.156Z" stroke="#F6F6F6" stroke-width="16"/>
<path d="M177.097 218.58C232.15 216.316 242.884 164.426 244.863 148.576C244.944 147.925 245.537 147.464 246.188 147.545C246.834 147.623 247.3 148.219 247.219 148.87C246.369 155.675 243.304 173.231 233.212 189.234C225.668 201.197 215.893 209.794 204.033 215.017C203.358 215.314 203.187 215.418 201.883 215.936C194.435 218.897 186.202 220.582 177.195 220.952C177.072 220.957 176.952 220.943 176.838 220.913C176.35 220.782 175.982 220.346 175.96 219.815C175.933 219.159 176.442 218.607 177.097 218.58Z" fill="#F0AC47"/>
<path d="M177.097 218.58C232.15 216.317 242.884 164.426 244.863 148.576C244.944 147.926 245.537 147.464 246.188 147.545C239.414 201.004 204.788 219.817 175.96 219.815C175.933 219.16 176.442 218.607 177.097 218.58Z" fill="#FFDDAA"/>
<path d="M244.452 167.291L245.127 165.891C245.274 165.592 255.558 145.066 271.522 148.412C270.764 151.91 268.273 160.469 261.431 165.007C256.909 168.007 251.205 168.773 244.452 167.291Z" fill="#F0AC47"/>
<path d="M241.549 161.448L241.473 162.961C234.998 161.08 230.47 157.763 227.996 153.085C224.253 146.005 226.112 137.513 227.095 134.164C242.333 138.743 241.562 161.125 241.549 161.448Z" fill="#F0AC47"/>
<path d="M246.054 142.812C245.816 142.497 232.374 124.429 242.354 111.898C245.093 114.109 251.513 120.077 252.479 128.095C253.118 133.393 251.271 138.744 246.987 144.023L246.054 142.812Z" fill="#F0AC47"/>
<path d="M234.467 189.109L235.468 188.005C235.695 187.759 250.714 171.71 264.462 179.127C262.815 182.133 258.201 189.317 250.683 191.626C245.715 193.152 240.267 192.305 234.467 189.109Z" fill="#F0AC47"/>
<path d="M221.137 204.957C221.422 204.774 239.941 193.054 251.347 203.654C249.004 206.143 242.75 211.92 234.915 212.265C229.739 212.492 224.695 210.311 219.896 205.771L221.137 204.957Z" fill="#F0AC47"/>
<path d="M231.39 184.922L231.311 186.507C224.518 184.533 219.771 181.053 217.181 176.14C213.26 168.7 215.211 159.835 216.244 156.337C232.208 161.13 231.404 184.569 231.39 184.922Z" fill="#F0AC47"/>
<path d="M216.69 201.238L216.542 202.834C209.789 200.559 205.155 196.856 202.75 191.806C199.113 184.165 201.453 175.281 202.638 171.788C218.499 177.29 216.724 200.819 216.69 201.238Z" fill="#F0AC47"/>
<path d="M187 183.972C201.054 190.653 196.958 212.127 196.9 212.416L196.603 213.865C190.631 211.089 186.753 207.215 185.065 202.329C182.506 194.928 185.556 187.045 187 183.972Z" fill="#F0AC47"/>
<path d="M230.111 224.524C222.616 211.828 202.7 217.512 202.432 217.591L201.09 217.995C204.215 223.395 208.2 226.725 212.953 227.905C220.153 229.692 227.334 226.147 230.111 224.524Z" fill="#F0AC47"/>
<path d="M100.478 218.58C45.4244 216.316 34.6904 164.426 32.712 148.576C32.6308 147.925 32.0373 147.464 31.3869 147.545C30.7407 147.623 30.2745 148.219 30.3559 148.87C31.2055 155.675 34.2709 173.231 44.3624 189.234C51.9062 201.197 61.6812 209.794 73.5416 215.017C74.2171 215.314 74.3873 215.418 75.6919 215.936C83.1401 218.897 91.373 220.582 100.38 220.952C100.503 220.957 100.623 220.943 100.737 220.913C101.225 220.782 101.593 220.346 101.615 219.815C101.642 219.159 101.132 218.607 100.478 218.58Z" fill="#F0AC47"/>
<path d="M100.478 218.58C45.4245 216.317 34.6905 164.426 32.7122 148.576C32.6309 147.926 32.0375 147.464 31.3871 147.545C38.1611 201.004 72.7862 219.817 101.615 219.815C101.642 219.16 101.133 218.607 100.478 218.58Z" fill="#FFDDAA"/>
<path d="M33.1223 167.291L32.4481 165.891C32.3008 165.592 22.0166 145.066 6.05274 148.412C6.81063 151.91 9.30145 160.469 16.1438 165.007C20.666 168.007 26.3695 168.773 33.1223 167.291Z" fill="#F0AC47"/>
<path d="M36.0256 161.448L36.1014 162.961C42.5768 161.08 47.1046 157.763 49.5784 153.085C53.3216 146.005 51.4625 137.513 50.4802 134.164C35.2417 138.743 36.0125 161.125 36.0256 161.448Z" fill="#F0AC47"/>
<path d="M31.521 142.812C31.7584 142.497 45.2006 124.429 35.2205 111.898C32.4821 114.109 26.0613 120.077 25.0954 128.095C24.4569 133.393 26.3034 138.744 30.588 144.023L31.521 142.812Z" fill="#F0AC47"/>
<path d="M43.1073 189.109L42.1068 188.005C41.8793 187.759 26.8611 171.71 13.1122 179.127C14.7598 182.133 19.374 189.317 26.8919 191.626C31.8599 193.152 37.3073 192.305 43.1073 189.109Z" fill="#F0AC47"/>
<path d="M56.4375 204.957C56.1529 204.774 37.6337 193.054 26.2275 203.654C28.5704 206.143 34.8248 211.92 42.6593 212.265C47.8353 212.492 52.8798 210.311 57.6787 205.771L56.4375 204.957Z" fill="#F0AC47"/>
<path d="M46.1847 184.922L46.2641 186.507C53.0568 184.533 57.8041 181.053 60.3935 176.14C64.315 168.7 62.3636 159.835 61.3311 156.337C45.3664 161.13 46.1707 184.569 46.1847 184.922Z" fill="#F0AC47"/>
<path d="M60.8848 201.238L61.0323 202.834C67.7855 200.559 72.4195 196.856 74.8244 191.806C78.462 184.165 76.1217 175.281 74.9364 171.788C59.0761 177.29 60.8511 200.819 60.8848 201.238Z" fill="#F0AC47"/>
<path d="M90.575 183.972C76.5208 190.653 80.6167 212.127 80.6745 212.416L80.9722 213.865C86.9436 211.089 90.8213 207.215 92.5099 202.329C95.0686 194.928 92.0191 187.045 90.575 183.972Z" fill="#F0AC47"/>
<path d="M47.4632 224.524C54.9587 211.828 74.8744 217.512 75.1429 217.591L76.4848 217.995C73.3594 223.395 69.3748 226.725 64.6216 227.905C57.4213 229.692 50.2405 226.147 47.4632 224.524Z" fill="#F0AC47"/>
<path d="M139.56 190.797C187.884 190.797 227.058 151.667 227.058 103.399C227.058 55.1297 187.884 16 139.56 16C91.2365 16 52.0625 55.1297 52.0625 103.399C52.0625 151.667 91.2365 190.797 139.56 190.797Z" fill="url(#paint2_linear_3531_6759)"/>
<path d="M139.56 190.797C187.884 190.797 227.058 151.667 227.058 103.399C227.058 55.1297 187.884 16 139.56 16C91.2365 16 52.0625 55.1297 52.0625 103.399C52.0625 151.667 91.2365 190.797 139.56 190.797Z" fill="url(#paint3_linear_3531_6759)" fill-opacity="0.6"/>
<path d="M139.56 190.797C187.884 190.797 227.058 151.667 227.058 103.399C227.058 55.1297 187.884 16 139.56 16C91.2365 16 52.0625 55.1297 52.0625 103.399C52.0625 151.667 91.2365 190.797 139.56 190.797Z" fill="url(#paint4_linear_3531_6759)"/>
<path d="M139.56 190.797C187.884 190.797 227.058 151.667 227.058 103.399C227.058 55.1297 187.884 16 139.56 16C91.2365 16 52.0625 55.1297 52.0625 103.399C52.0625 151.667 91.2365 190.797 139.56 190.797Z" fill="url(#paint5_linear_3531_6759)" fill-opacity="0.6"/>
<path d="M139.352 133.742H129.945V143.695C129.945 143.695 129.318 147.117 124.928 148.672C120.538 149.916 108.622 153.959 108.622 153.959C108.622 153.959 98.5876 155.825 98.5876 162.979V181.056C105.75 184.77 112.071 186.706 112.071 186.706V180.086C112.071 180.086 112.385 180.086 112.699 180.397C114.162 181.558 115.729 184.71 116.609 188.001C124.641 190.295 133.844 190.998 139.666 190.998V134.364L139.352 133.742Z" fill="#64D8BF"/>
<path d="M139.352 133.742H129.945V143.695C129.945 143.695 129.318 147.117 124.928 148.672C120.538 149.916 108.622 153.959 108.622 153.959C108.622 153.959 98.5876 155.825 98.5876 162.979V181.056C105.75 184.77 112.071 186.706 112.071 186.706V180.086C112.071 180.086 112.385 180.086 112.699 180.397C114.162 181.558 115.729 184.71 116.609 188.001C124.641 190.295 133.844 190.998 139.666 190.998V134.364L139.352 133.742Z" fill="#133274"/>
<path d="M169.736 153.365C169.736 153.365 162.311 151.522 156.98 149.967C151.649 148.412 154.561 149.289 153.934 149.289C149.544 148.045 148.917 144.312 148.917 144.312V134.359H139.509V190.967C151.016 190.897 159.969 188.486 162.75 187.721C163.5 183.741 165.021 181.547 166.477 180.392C166.477 180.392 166.844 180.214 167.104 180.081V186.379C167.104 186.379 175.813 183.491 180.588 180.635V162.974C180.588 155.821 171.668 153.905 171.668 153.905L169.736 153.365Z" fill="#254892"/>
<path d="M124.976 148.359C123.816 148.9 121.759 149.706 119.564 150.328C124.582 152.506 130.102 155.205 139.509 155.205V134.055H129.788V144.008C129.344 145.811 128.349 146.787 124.976 148.359Z" fill="#F1B786"/>
<path d="M148.917 144.008V134.055H139.509V155.205C147.976 155.205 156.756 152.717 158.951 150.539C156.756 149.917 154.874 149.295 153.62 148.984C151.223 148.39 148.917 145.502 148.917 144.008Z" fill="#FED5B1"/>
<path fill-rule="evenodd" clip-rule="evenodd" d="M148.916 134.366H129.807V141.208C133.57 143.386 137.941 144.319 137.941 144.319C137.941 144.319 143.176 145.545 149.134 144.923L148.916 144.008V134.055V134.366Z" fill="#E39F6E"/>
<path d="M178.393 75.8819C178.393 101.697 162.087 122.848 139.509 122.848C116.932 122.848 98.7444 111.961 98.7444 82.7245C98.7444 53.4876 116.932 37.625 139.509 37.625C162.087 37.625 178.393 59.7082 178.393 75.8819Z" fill="#133274"/>
<path d="M179.647 85.8363C179.647 52.867 161.773 37.9375 139.196 37.9375V123.16C162.087 123.16 179.647 120.672 179.647 85.8363Z" fill="#133274"/>
<path d="M116.932 109.157C116.932 114.133 112.855 118.177 107.838 118.177C102.821 118.177 98.7444 114.133 98.7444 109.157V82.7191C98.7444 77.7426 102.821 78.9868 107.838 78.9868C112.855 78.9868 116.932 77.4316 116.932 82.7191V109.157Z" fill="#133274"/>
<path d="M161.146 105.737C161.146 110.714 165.222 116.934 170.24 116.934C175.257 116.934 179.333 110.714 179.333 105.737V90.4965C179.333 85.52 175.257 81.4766 170.24 81.4766C165.222 81.4766 161.146 85.52 161.146 90.4965V105.737Z" fill="#133274"/>
<path d="M139.196 60.3828V137.467C149.23 137.467 165.85 132.548 169.312 120.05C171.607 106.654 165.85 62.7959 165.85 62.7959L139.196 60.3828Z" fill="#FED5B1"/>
<path d="M139.196 61.8594V137.464C132.924 137.464 110.417 131.612 108.145 120.046C105.259 105.35 112.542 61.8594 112.542 61.8594H139.196Z" fill="#F1B786"/>
<path d="M110.347 62.4988V66.8533C110.033 66.8533 124.457 80.2276 154.247 86.1372C184.037 92.0468 169.926 86.1372 169.926 86.1372L168.044 62.4988C168.044 62.4988 138.882 49.1245 110.66 62.4988H110.347Z" fill="#133274"/>
</g>
<defs>
<linearGradient id="paint0_linear_3531_6759" x1="181.01" y1="53.2948" x2="129.244" y2="215.453" gradientUnits="userSpaceOnUse">
<stop offset="0.24" stop-color="#3C56A5"/>
<stop offset="0.9" stop-color="#7BC4E6"/>
</linearGradient>
<radialGradient id="paint1_radial_3531_6759" cx="0" cy="0" r="1" gradientUnits="userSpaceOnUse" gradientTransform="translate(19.4757 181.15) rotate(-46.5587) scale(129.706)">
<stop offset="0.225" stop-color="#64D8BF"/>
<stop offset="1" stop-color="#64D8BF" stop-opacity="0"/>
</radialGradient>
<linearGradient id="paint2_linear_3531_6759" x1="130.009" y1="189.874" x2="146.302" y2="43.0772" gradientUnits="userSpaceOnUse">
<stop offset="0.2" stop-color="#3C57A6"/>
<stop offset="0.9" stop-color="#7BC5E7"/>
</linearGradient>
<linearGradient id="paint3_linear_3531_6759" x1="166.903" y1="97.0258" x2="203.904" y2="30.2274" gradientUnits="userSpaceOnUse">
<stop stop-color="white" stop-opacity="0"/>
<stop offset="1" stop-color="white"/>
</linearGradient>
<linearGradient id="paint4_linear_3531_6759" x1="130.009" y1="189.874" x2="146.302" y2="43.0772" gradientUnits="userSpaceOnUse">
<stop offset="0.2" stop-color="#3C57A6"/>
<stop offset="0.9" stop-color="#7BC5E7"/>
</linearGradient>
<linearGradient id="paint5_linear_3531_6759" x1="166.903" y1="97.0258" x2="203.904" y2="30.2274" gradientUnits="userSpaceOnUse">
<stop stop-color="#64D8BF" stop-opacity="0"/>
<stop offset="1" stop-color="#64D8BF"/>
</linearGradient>
<clipPath id="clip0_3531_6759">
<rect width="276" height="247" fill="white" transform="translate(0.0625)"/>
</clipPath>
</defs>
</svg>
