<svg width="24" height="25" viewBox="0 0 24 25" fill="none" xmlns="http://www.w3.org/2000/svg">
<circle cx="12" cy="12.5" r="12" fill="#959595"/>
<path d="M11.5792 14.999C11.1873 14.999 10.8683 14.8828 10.6222 14.6504C10.3761 14.4134 10.2531 14.1035 10.2531 13.7207C10.2531 13.6934 10.2531 13.666 10.2531 13.6387C10.2531 13.6113 10.2531 13.5863 10.2531 13.5635C10.2531 13.2354 10.3146 12.9414 10.4376 12.6816C10.5652 12.4219 10.743 12.1849 10.9708 11.9707C11.1987 11.7565 11.4676 11.5537 11.7775 11.3623C12.1557 11.1344 12.4542 10.9316 12.673 10.7539C12.8917 10.5762 13.049 10.3916 13.1447 10.2002C13.2404 10.0042 13.2882 9.77409 13.2882 9.50977C13.2882 9.26367 13.2221 9.04492 13.09 8.85352C12.9578 8.66211 12.7801 8.514 12.5568 8.40918C12.3335 8.30436 12.0828 8.25195 11.8048 8.25195C11.5724 8.25195 11.3582 8.28841 11.1622 8.36133C10.9708 8.43424 10.8022 8.54818 10.6564 8.70312C10.5105 8.85807 10.3898 9.05859 10.2941 9.30469C10.1756 9.5599 10.0001 9.75814 9.76771 9.89941C9.53984 10.0361 9.28008 10.1045 8.98841 10.1045C8.59193 10.1045 8.27748 9.99284 8.04505 9.76953C7.81263 9.54167 7.6987 9.24089 7.70326 8.86719C7.70326 8.69401 7.72376 8.52311 7.76478 8.35449C7.81035 8.18132 7.87643 8.0127 7.96302 7.84863C8.1681 7.47038 8.45977 7.14225 8.83802 6.86426C9.22083 6.58171 9.67428 6.36296 10.1984 6.20801C10.727 6.0485 11.3104 5.96875 11.9484 5.96875C12.8097 5.96875 13.5662 6.11003 14.2179 6.39258C14.8696 6.67513 15.3777 7.07845 15.7423 7.60254C16.1115 8.12207 16.296 8.73958 16.296 9.45508C16.296 10.1022 16.1388 10.6582 15.8244 11.123C15.5099 11.5879 15.0314 12.0117 14.3888 12.3945C14.0014 12.627 13.7029 12.8252 13.4933 12.9893C13.2837 13.1488 13.1287 13.306 13.0285 13.4609C12.9327 13.6113 12.8667 13.7891 12.8302 13.9941C12.8257 14.0124 12.8188 14.0352 12.8097 14.0625C12.8051 14.0853 12.8029 14.1058 12.8029 14.124C12.7299 14.4111 12.5864 14.6299 12.3722 14.7803C12.1626 14.9261 11.8982 14.999 11.5792 14.999ZM11.6134 19.0254C11.3217 19.0254 11.0551 18.957 10.8136 18.8203C10.5721 18.6836 10.3784 18.499 10.2326 18.2666C10.0867 18.0387 10.0138 17.7812 10.0138 17.4941C10.0138 17.2161 10.0867 16.9632 10.2326 16.7354C10.3784 16.5029 10.5721 16.3206 10.8136 16.1885C11.0551 16.0518 11.3217 15.9834 11.6134 15.9834C11.9096 15.9834 12.1785 16.0518 12.4201 16.1885C12.6616 16.3206 12.8553 16.5029 13.0011 16.7354C13.1469 16.9632 13.2199 17.2161 13.2199 17.4941C13.2199 17.7812 13.1469 18.0387 13.0011 18.2666C12.8553 18.499 12.6616 18.6836 12.4201 18.8203C12.1785 18.957 11.9096 19.0254 11.6134 19.0254Z" fill="white"/>
</svg>
