<svg width="25" height="25" viewBox="0 0 25 25" fill="none" xmlns="http://www.w3.org/2000/svg">
<circle cx="12.5" cy="12.5" r="12" fill="#64D8BF"/>
<path d="M12.0792 14.999C11.6873 14.999 11.3683 14.8828 11.1222 14.6504C10.8761 14.4134 10.7531 14.1035 10.7531 13.7207C10.7531 13.6934 10.7531 13.666 10.7531 13.6387C10.7531 13.6113 10.7531 13.5863 10.7531 13.5635C10.7531 13.2354 10.8146 12.9414 10.9376 12.6816C11.0652 12.4219 11.243 12.1849 11.4708 11.9707C11.6987 11.7565 11.9676 11.5537 12.2775 11.3623C12.6557 11.1344 12.9542 10.9316 13.173 10.7539C13.3917 10.5762 13.549 10.3916 13.6447 10.2002C13.7404 10.0042 13.7882 9.77409 13.7882 9.50977C13.7882 9.26367 13.7221 9.04492 13.59 8.85352C13.4578 8.66211 13.2801 8.514 13.0568 8.40918C12.8335 8.30436 12.5828 8.25195 12.3048 8.25195C12.0724 8.25195 11.8582 8.28841 11.6622 8.36133C11.4708 8.43424 11.3022 8.54818 11.1564 8.70312C11.0105 8.85807 10.8898 9.05859 10.7941 9.30469C10.6756 9.5599 10.5001 9.75814 10.2677 9.89941C10.0398 10.0361 9.78008 10.1045 9.48841 10.1045C9.09193 10.1045 8.77748 9.99284 8.54505 9.76953C8.31263 9.54167 8.1987 9.24089 8.20326 8.86719C8.20326 8.69401 8.22376 8.52311 8.26478 8.35449C8.31035 8.18132 8.37643 8.0127 8.46302 7.84863C8.6681 7.47038 8.95977 7.14225 9.33802 6.86426C9.72083 6.58171 10.1743 6.36296 10.6984 6.20801C11.227 6.0485 11.8104 5.96875 12.4484 5.96875C13.3097 5.96875 14.0662 6.11003 14.7179 6.39258C15.3696 6.67513 15.8777 7.07845 16.2423 7.60254C16.6115 8.12207 16.796 8.73958 16.796 9.45508C16.796 10.1022 16.6388 10.6582 16.3244 11.123C16.0099 11.5879 15.5314 12.0117 14.8888 12.3945C14.5014 12.627 14.2029 12.8252 13.9933 12.9893C13.7837 13.1488 13.6287 13.306 13.5285 13.4609C13.4327 13.6113 13.3667 13.7891 13.3302 13.9941C13.3257 14.0124 13.3188 14.0352 13.3097 14.0625C13.3051 14.0853 13.3029 14.1058 13.3029 14.124C13.2299 14.4111 13.0864 14.6299 12.8722 14.7803C12.6626 14.9261 12.3982 14.999 12.0792 14.999ZM12.1134 19.0254C11.8217 19.0254 11.5551 18.957 11.3136 18.8203C11.0721 18.6836 10.8784 18.499 10.7326 18.2666C10.5867 18.0387 10.5138 17.7812 10.5138 17.4941C10.5138 17.2161 10.5867 16.9632 10.7326 16.7354C10.8784 16.5029 11.0721 16.3206 11.3136 16.1885C11.5551 16.0518 11.8217 15.9834 12.1134 15.9834C12.4096 15.9834 12.6785 16.0518 12.9201 16.1885C13.1616 16.3206 13.3553 16.5029 13.5011 16.7354C13.6469 16.9632 13.7199 17.2161 13.7199 17.4941C13.7199 17.7812 13.6469 18.0387 13.5011 18.2666C13.3553 18.499 13.1616 18.6836 12.9201 18.8203C12.6785 18.957 12.4096 19.0254 12.1134 19.0254Z" fill="#183E91"/>
</svg>
