<svg width="276" height="247" viewBox="0 0 276 247" fill="none" xmlns="http://www.w3.org/2000/svg">
<g clip-path="url(#clip0_3502_16820)">
<path d="M139.191 199.525C192.036 199.525 234.876 156.686 234.876 103.841C234.876 50.9956 192.036 8.15625 139.191 8.15625C86.3464 8.15625 43.5071 50.9956 43.5071 103.841C43.5071 156.686 86.3464 199.525 139.191 199.525Z" fill="url(#paint0_linear_3502_16820)"/>
<path d="M139.191 199.525C192.036 199.525 234.876 156.686 234.876 103.841C234.876 50.9956 192.036 8.15625 139.191 8.15625C86.3464 8.15625 43.5071 50.9956 43.5071 103.841C43.5071 156.686 86.3464 199.525 139.191 199.525Z" fill="url(#paint1_linear_3502_16820)"/>
<path d="M139.191 199.525C192.036 199.525 234.876 156.686 234.876 103.841C234.876 50.9956 192.036 8.15625 139.191 8.15625C86.3464 8.15625 43.5071 50.9956 43.5071 103.841C43.5071 156.686 86.3464 199.525 139.191 199.525Z" fill="url(#paint2_linear_3502_16820)"/>
<path d="M139.191 199.525C192.036 199.525 234.876 156.686 234.876 103.841C234.876 50.9956 192.036 8.15625 139.191 8.15625C86.3464 8.15625 43.5071 50.9956 43.5071 103.841C43.5071 156.686 86.3464 199.525 139.191 199.525Z" fill="url(#paint3_linear_3502_16820)"/>
<path d="M139.191 199.525C192.036 199.525 234.876 156.686 234.876 103.841C234.876 50.9956 192.036 8.15625 139.191 8.15625C86.3464 8.15625 43.5071 50.9956 43.5071 103.841C43.5071 156.686 86.3464 199.525 139.191 199.525Z" fill="url(#paint4_radial_3502_16820)"/>
<path d="M139.191 199.525C192.036 199.525 234.876 156.686 234.876 103.841C234.876 50.9956 192.036 8.15625 139.191 8.15625C86.3464 8.15625 43.5071 50.9956 43.5071 103.841C43.5071 156.686 86.3464 199.525 139.191 199.525Z" stroke="#F6F6F6" stroke-width="16"/>
<path d="M139.56 190.797C187.884 190.797 227.058 151.667 227.058 103.399C227.058 55.1297 187.884 16 139.56 16C91.2367 16 52.0627 55.1297 52.0627 103.399C52.0627 151.667 91.2367 190.797 139.56 190.797Z" fill="url(#paint5_linear_3502_16820)"/>
<path d="M139.56 190.797C187.884 190.797 227.058 151.667 227.058 103.399C227.058 55.1297 187.884 16 139.56 16C91.2367 16 52.0627 55.1297 52.0627 103.399C52.0627 151.667 91.2367 190.797 139.56 190.797Z" fill="url(#paint6_linear_3502_16820)" fill-opacity="0.6"/>
<mask id="mask0_3502_16820" style="mask-type:alpha" maskUnits="userSpaceOnUse" x="52" y="16" width="176" height="175">
<path d="M226.558 103.399C226.558 151.391 187.608 190.297 139.56 190.297C91.5123 190.297 52.5627 151.391 52.5627 103.399C52.5627 55.4063 91.5123 16.5 139.56 16.5C187.608 16.5 226.558 55.4063 226.558 103.399Z" fill="url(#paint7_linear_3502_16820)"/>
<path d="M226.558 103.399C226.558 151.391 187.608 190.297 139.56 190.297C91.5123 190.297 52.5627 151.391 52.5627 103.399C52.5627 55.4063 91.5123 16.5 139.56 16.5C187.608 16.5 226.558 55.4063 226.558 103.399Z" fill="url(#paint8_linear_3502_16820)" fill-opacity="0.6"/>
<path d="M226.558 103.399C226.558 151.391 187.608 190.297 139.56 190.297C91.5123 190.297 52.5627 151.391 52.5627 103.399C52.5627 55.4063 91.5123 16.5 139.56 16.5C187.608 16.5 226.558 55.4063 226.558 103.399Z" stroke="black"/>
</mask>
<g mask="url(#mask0_3502_16820)">
<rect x="170.375" y="28.2266" width="43.3113" height="30.2656" rx="5.5" fill="#64D8BF" stroke="white"/>
<rect x="130.11" y="81.2031" width="43.3113" height="30.2656" rx="5.5" fill="#64D8BF" stroke="white"/>
<rect x="130.11" y="127.211" width="43.3113" height="30.2656" rx="5.5" fill="#64D8BF" stroke="white"/>
<path d="M121.657 94.9844C121.819 94.9844 121.97 95.0433 122.098 95.1404C122.225 95.2362 122.33 95.3684 122.413 95.52C122.496 95.6722 122.56 95.8474 122.602 96.0342C122.645 96.2215 122.666 96.4202 122.666 96.6198C122.666 97.0192 122.58 97.4151 122.413 97.7196C122.249 98.0177 121.989 98.2551 121.657 98.2551H103.51C103.178 98.2551 102.917 98.0177 102.753 97.7196C102.587 97.4151 102.5 97.0192 102.5 96.6198C102.5 96.4202 102.522 96.2215 102.564 96.0342C102.607 95.8474 102.67 95.6722 102.753 95.52C102.837 95.3684 102.942 95.2362 103.068 95.1404C103.197 95.0433 103.347 94.9844 103.51 94.9844H121.657Z" fill="white" stroke="white" stroke-width="0.5"/>
<path d="M176.439 59.243H207.699C211.416 59.243 214.436 56.2218 214.436 52.5069V34.3377C214.436 30.6228 211.414 27.6016 207.699 27.6016H176.439C172.724 27.6016 169.703 30.6228 169.703 34.3377V52.5069C169.703 56.2218 172.724 59.243 176.439 59.243ZM173.17 34.3377C173.17 32.5353 174.637 31.0687 176.439 31.0687H207.699C209.502 31.0687 210.968 32.5353 210.968 34.3377V52.5069C210.968 54.3093 209.502 55.7759 207.699 55.7759H176.439C174.637 55.7759 173.17 54.3093 173.17 52.5069V34.3377Z" fill="white" stroke="white" stroke-width="0.5"/>
<path d="M204.241 40.2796H179.898C179.353 40.2796 178.914 39.8403 178.914 39.2961C178.914 38.7518 179.353 38.3125 179.898 38.3125H204.241C204.786 38.3125 205.225 38.7518 205.225 39.2961C205.225 39.8403 204.786 40.2796 204.241 40.2796Z" fill="white" stroke="white"/>
<path d="M192.992 48.5374H179.898C179.353 48.5374 178.914 48.0981 178.914 47.5539C178.914 47.0096 179.353 46.5703 179.898 46.5703H192.992C193.536 46.5703 193.975 47.0096 193.975 47.5539C193.975 48.0981 193.536 48.5374 192.992 48.5374Z" fill="white" stroke="white"/>
<path d="M204.241 48.5374H201.844C201.3 48.5374 200.86 48.0981 200.86 47.5539C200.86 47.0096 201.3 46.5703 201.844 46.5703H204.241C204.786 46.5703 205.225 47.0096 205.225 47.5539C205.225 48.0981 204.786 48.5374 204.241 48.5374Z" fill="white" stroke="white"/>
<path d="M136.095 112.095H167.356C171.07 112.095 174.092 109.073 174.092 105.358V87.1893C174.092 83.4743 171.07 80.4531 167.356 80.4531H136.095C132.381 80.4531 129.359 83.4743 129.359 87.1893V105.358C129.359 109.073 132.381 112.095 136.095 112.095ZM132.826 87.1893C132.826 85.3868 134.293 83.9203 136.095 83.9203H167.356C169.158 83.9203 170.625 85.3868 170.625 87.1893V105.358C170.625 107.161 169.158 108.627 167.356 108.627H136.095C134.293 108.627 132.826 107.161 132.826 105.358V87.1893Z" fill="white" stroke="white" stroke-width="0.5"/>
<path d="M163.897 93.1312H139.553C139.01 93.1312 138.57 92.6916 138.57 92.1476C138.57 91.6037 139.01 91.1641 139.553 91.1641H163.897C164.442 91.1641 164.881 91.6034 164.881 92.1476C164.881 92.6919 164.442 93.1312 163.897 93.1312Z" fill="white" stroke="white"/>
<path d="M152.647 101.366H139.553C139.01 101.366 138.57 100.926 138.57 100.382C138.57 99.8381 139.01 99.3984 139.553 99.3984H152.647C153.192 99.3984 153.631 99.8377 153.631 100.382C153.631 100.926 153.192 101.366 152.647 101.366Z" fill="white" stroke="white"/>
<path d="M163.898 101.366H161.5C160.956 101.366 160.517 100.926 160.517 100.382C160.517 99.8377 160.956 99.3984 161.5 99.3984H163.898C164.442 99.3984 164.881 99.8377 164.881 100.382C164.881 100.926 164.442 101.366 163.898 101.366Z" fill="white" stroke="white"/>
<path d="M136.095 158.105H167.356C171.071 158.105 174.092 155.084 174.092 151.368V133.199C174.092 129.484 171.071 126.461 167.356 126.461H136.095C132.38 126.461 129.359 129.484 129.359 133.199V151.369C129.359 155.084 132.381 158.105 136.095 158.105ZM132.826 133.199C132.826 131.395 134.293 129.928 136.095 129.928H167.356C169.158 129.928 170.625 131.395 170.625 133.199V151.368C170.625 153.17 169.158 154.637 167.356 154.637H136.095C134.293 154.637 132.826 153.17 132.826 151.368V133.199Z" fill="white" stroke="white" stroke-width="0.5"/>
<path d="M163.897 139.139H139.553C139.01 139.139 138.57 138.699 138.57 138.155C138.57 137.611 139.01 137.172 139.553 137.172H163.897C164.442 137.172 164.881 137.611 164.881 138.155C164.881 138.7 164.442 139.139 163.897 139.139Z" fill="white" stroke="white"/>
<path d="M152.647 147.397H139.553C139.01 147.397 138.57 146.957 138.57 146.413C138.57 145.869 139.01 145.43 139.553 145.43H152.647C153.192 145.43 153.631 145.869 153.631 146.413C153.631 146.958 153.192 147.397 152.647 147.397Z" fill="white" stroke="white"/>
<path d="M163.898 147.397H161.5C160.956 147.397 160.517 146.958 160.517 146.413C160.517 145.869 160.956 145.43 161.5 145.43H163.898C164.442 145.43 164.881 145.869 164.881 146.413C164.881 146.958 164.442 147.397 163.898 147.397Z" fill="white" stroke="white"/>
<path d="M181.783 97.9735H192.992C193.95 97.9735 194.725 97.1985 194.725 96.24V63.5304C194.725 62.572 193.95 61.7969 192.992 61.7969C192.033 61.7969 191.258 62.572 191.258 63.5304V94.5064H181.783C180.825 94.5064 180.05 95.2815 180.05 96.24C180.05 97.1985 180.825 97.9735 181.783 97.9735Z" fill="white" stroke="white" stroke-width="0.5"/>
<path d="M151.726 123.356C151.182 123.356 150.743 122.917 150.743 122.372V116.64C150.743 116.096 151.182 115.656 151.726 115.656C152.271 115.656 152.71 116.096 152.71 116.64V122.372C152.71 122.915 152.27 123.356 151.726 123.356Z" fill="white" stroke="white"/>
<path d="M68.0869 98.9397C66.3468 97.6399 66.3468 95.0319 68.0869 93.7322L79.4928 85.2122C80.6463 84.3506 82.2292 84.3506 83.3827 85.2122L94.7886 93.7322C96.5286 95.0319 96.5286 97.6399 94.7886 98.9397L83.3827 107.46C82.2292 108.321 80.6463 108.321 79.4928 107.46L68.0869 98.9397Z" fill="#F9DB6B" stroke="white" stroke-width="3.5"/>
</g>
<path d="M177.035 218.58C232.088 216.316 242.822 164.426 244.8 148.576C244.882 147.925 245.475 147.464 246.125 147.545C246.772 147.623 247.238 148.219 247.156 148.87C246.307 155.675 243.241 173.231 233.15 189.234C225.606 201.197 215.831 209.794 203.971 215.017C203.295 215.314 203.125 215.418 201.82 215.936C194.372 218.897 186.139 220.582 177.132 220.952C177.009 220.957 176.889 220.943 176.776 220.913C176.287 220.782 175.919 220.346 175.897 219.815C175.871 219.159 176.38 218.607 177.035 218.58Z" fill="#F0AC47"/>
<path d="M177.035 218.58C232.088 216.317 242.822 164.426 244.8 148.576C244.881 147.926 245.475 147.464 246.125 147.545C239.351 201.004 204.726 219.817 175.897 219.815C175.871 219.16 176.38 218.607 177.035 218.58Z" fill="#FFDDAA"/>
<path d="M244.39 167.291L245.064 165.891C245.212 165.592 255.496 145.066 271.46 148.412C270.702 151.91 268.211 160.469 261.369 165.007C256.846 168.007 251.143 168.773 244.39 167.291Z" fill="#F0AC47"/>
<path d="M241.487 161.448L241.411 162.961C234.936 161.08 230.408 157.763 227.934 153.085C224.191 146.005 226.05 137.513 227.032 134.164C242.271 138.743 241.5 161.125 241.487 161.448Z" fill="#F0AC47"/>
<path d="M245.991 142.812C245.754 142.497 232.312 124.429 242.292 111.898C245.03 114.109 251.451 120.077 252.417 128.095C253.055 133.393 251.209 138.744 246.924 144.023L245.991 142.812Z" fill="#F0AC47"/>
<path d="M234.405 189.109L235.406 188.005C235.633 187.759 250.651 171.71 264.4 179.127C262.753 182.133 258.138 189.317 250.62 191.626C245.652 193.152 240.205 192.305 234.405 189.109Z" fill="#F0AC47"/>
<path d="M221.075 204.957C221.359 204.774 239.879 193.054 251.285 203.654C248.942 206.143 242.688 211.92 234.853 212.265C229.677 212.492 224.633 210.311 219.834 205.771L221.075 204.957Z" fill="#F0AC47"/>
<path d="M231.328 184.922L231.248 186.507C224.456 184.533 219.708 181.053 217.119 176.14C213.197 168.7 215.149 159.835 216.181 156.337C232.146 161.13 231.342 184.569 231.328 184.922Z" fill="#F0AC47"/>
<path d="M216.628 201.238L216.48 202.834C209.727 200.559 205.093 196.856 202.688 191.806C199.05 184.165 201.391 175.281 202.576 171.788C218.436 177.29 216.661 200.819 216.628 201.238Z" fill="#F0AC47"/>
<path d="M186.937 183.972C200.992 190.653 196.896 212.127 196.838 212.416L196.54 213.865C190.569 211.089 186.691 207.215 185.002 202.329C182.444 194.928 185.493 187.045 186.937 183.972Z" fill="#F0AC47"/>
<path d="M230.049 224.524C222.554 211.828 202.638 217.512 202.369 217.591L201.028 217.995C204.153 223.395 208.138 226.725 212.891 227.905C220.091 229.692 227.272 226.147 230.049 224.524Z" fill="#F0AC47"/>
<path d="M100.415 218.58C45.3621 216.316 34.6281 164.426 32.6498 148.576C32.5685 147.925 31.9751 147.464 31.3246 147.545C30.6784 147.623 30.2122 148.219 30.2936 148.87C31.1433 155.675 34.2087 173.231 44.3002 189.234C51.844 201.197 61.6189 209.794 73.4793 215.017C74.1548 215.314 74.325 215.418 75.6297 215.936C83.0778 218.897 91.3108 220.582 100.318 220.952C100.441 220.957 100.561 220.943 100.674 220.913C101.163 220.782 101.531 220.346 101.553 219.815C101.579 219.159 101.07 218.607 100.415 218.58Z" fill="#F0AC47"/>
<path d="M100.416 218.58C45.3623 216.317 34.6283 164.426 32.6499 148.576C32.5687 147.926 31.9752 147.464 31.3248 147.545C38.0989 201.004 72.7239 219.817 101.553 219.815C101.58 219.16 101.07 218.607 100.416 218.58Z" fill="#FFDDAA"/>
<path d="M33.06 167.291L32.3858 165.891C32.2385 165.592 21.9544 145.066 5.99047 148.412C6.74836 151.91 9.23918 160.469 16.0815 165.007C20.6037 168.007 26.3073 168.773 33.06 167.291Z" fill="#F0AC47"/>
<path d="M35.9634 161.448L36.0391 162.961C42.5145 161.08 47.0423 157.763 49.5161 153.085C53.2593 146.005 51.4002 137.513 50.4179 134.164C35.1794 138.743 35.9503 161.125 35.9634 161.448Z" fill="#F0AC47"/>
<path d="M31.4587 142.812C31.6961 142.497 45.1383 124.429 35.1583 111.898C32.4198 114.109 25.999 120.077 25.0331 128.095C24.3946 133.393 26.2412 138.744 30.5258 144.023L31.4587 142.812Z" fill="#F0AC47"/>
<path d="M43.045 189.109L42.0445 188.005C41.817 187.759 26.7988 171.71 13.05 179.127C14.6976 182.133 19.3117 189.317 26.8296 191.626C31.7977 193.152 37.245 192.305 43.045 189.109Z" fill="#F0AC47"/>
<path d="M56.3752 204.957C56.0906 204.774 37.5714 193.054 26.1652 203.654C28.5081 206.143 34.7625 211.92 42.597 212.265C47.773 212.492 52.8176 210.311 57.6164 205.771L56.3752 204.957Z" fill="#F0AC47"/>
<path d="M46.1224 184.922L46.2018 186.507C52.9945 184.533 57.7418 181.053 60.3312 176.14C64.2528 168.7 62.3014 159.835 61.2688 156.337C45.3041 161.13 46.1085 184.569 46.1224 184.922Z" fill="#F0AC47"/>
<path d="M60.8225 201.238L60.97 202.834C67.7233 200.559 72.3573 196.856 74.7622 191.806C78.3997 184.165 76.0594 175.281 74.8741 171.788C59.0139 177.29 60.7888 200.819 60.8225 201.238Z" fill="#F0AC47"/>
<path d="M90.5127 183.972C76.4586 190.653 80.5544 212.127 80.6122 212.416L80.9099 213.865C86.8813 211.089 90.7591 207.215 92.4476 202.329C95.0064 194.928 91.9568 187.045 90.5127 183.972Z" fill="#F0AC47"/>
<path d="M47.401 224.524C54.8964 211.828 74.8121 217.512 75.0806 217.591L76.4225 217.995C73.2972 223.395 69.3125 226.725 64.5593 227.905C57.359 229.692 50.1782 226.147 47.401 224.524Z" fill="#F0AC47"/>
</g>
<defs>
<linearGradient id="paint0_linear_3502_16820" x1="195.75" y1="52.0391" x2="129.346" y2="215.873" gradientUnits="userSpaceOnUse">
<stop offset="0.0613512" stop-color="#3C56A5"/>
<stop offset="0.85181" stop-color="#7BC4E6"/>
</linearGradient>
<linearGradient id="paint1_linear_3502_16820" x1="195.75" y1="52.0391" x2="129.346" y2="215.873" gradientUnits="userSpaceOnUse">
<stop offset="0.0613512" stop-color="#3C56A5"/>
<stop offset="0.85181" stop-color="#7BC4E6"/>
</linearGradient>
<linearGradient id="paint2_linear_3502_16820" x1="195.75" y1="52.0391" x2="129.346" y2="215.873" gradientUnits="userSpaceOnUse">
<stop offset="0.0613512" stop-color="#3C56A5"/>
<stop offset="0.85181" stop-color="#7BC4E6"/>
</linearGradient>
<linearGradient id="paint3_linear_3502_16820" x1="195.75" y1="52.0391" x2="129.346" y2="215.873" gradientUnits="userSpaceOnUse">
<stop offset="0.0613512" stop-color="#3C56A5"/>
<stop offset="0.85181" stop-color="#7BC4E6"/>
</linearGradient>
<radialGradient id="paint4_radial_3502_16820" cx="0" cy="0" r="1" gradientUnits="userSpaceOnUse" gradientTransform="translate(25.2502 178.539) rotate(-36.1896) scale(155.811 155.811)">
<stop offset="0.286773" stop-color="#64D8BF"/>
<stop offset="1" stop-color="#64D8BF" stop-opacity="0"/>
</radialGradient>
<linearGradient id="paint5_linear_3502_16820" x1="130.009" y1="189.874" x2="146.302" y2="43.0772" gradientUnits="userSpaceOnUse">
<stop offset="0.2" stop-color="#3C57A6"/>
<stop offset="0.9" stop-color="#7BC5E7"/>
</linearGradient>
<linearGradient id="paint6_linear_3502_16820" x1="166.903" y1="97.0258" x2="203.904" y2="30.2274" gradientUnits="userSpaceOnUse">
<stop stop-color="#64D8BF" stop-opacity="0"/>
<stop offset="1" stop-color="#64D8BF"/>
</linearGradient>
<linearGradient id="paint7_linear_3502_16820" x1="130.009" y1="189.874" x2="146.302" y2="43.0772" gradientUnits="userSpaceOnUse">
<stop offset="0.2" stop-color="#3C57A6"/>
<stop offset="0.9" stop-color="#7BC5E7"/>
</linearGradient>
<linearGradient id="paint8_linear_3502_16820" x1="166.903" y1="97.0258" x2="203.904" y2="30.2274" gradientUnits="userSpaceOnUse">
<stop stop-color="#64D8BF" stop-opacity="0"/>
<stop offset="1" stop-color="#64D8BF"/>
</linearGradient>
<clipPath id="clip0_3502_16820">
<rect width="276" height="247" fill="white"/>
</clipPath>
</defs>
</svg>
